<svg width="640" height="640" viewBox="0 0 640 640" fill="none" xmlns="http://www.w3.org/2000/svg">
<rect width="640" height="640" fill="white"/>
<path d="M339.392 115.594L373.024 215.056L454.461 144.977C469.09 132.388 491.301 145.775 487.004 164.59L464.091 264.919L569.587 243.25C588.8 239.304 601.622 262.496 588.062 276.668L516.669 351.282L617.711 382.01C636.619 387.76 636.619 414.529 617.711 420.279L516.669 451.007L578.299 501.956C592.747 513.899 584.301 537.371 565.556 537.371H464.091H447.91C456.399 523.233 460.685 506.854 460.685 488.458C460.685 454.592 444.215 428.368 414.474 410.326L414.468 410.322C400.727 401.982 372.221 391.78 332.415 379.341L332.32 379.311L332.223 379.282C303.71 370.771 288.234 364.919 283.308 362.148L283.126 362.045L282.94 361.947C276.925 358.772 273.562 355.651 271.697 352.961C269.958 350.452 269.027 347.623 269.027 343.874C269.027 338.508 270.13 334.86 271.652 332.264C273.145 329.718 275.597 327.232 279.87 325.026L280.108 324.904L280.34 324.773C287.46 320.786 299.469 317.947 318.07 317.947C339.181 317.947 352.041 321.917 359.938 327.839L360.084 327.949L360.232 328.055C367.558 333.288 373.777 343.254 377.56 360.655L380.245 373.006H455.431L453.898 355.922C450.675 320.011 437.455 291.401 411.985 272.502C388.493 254.556 357.331 247.072 320.592 247.072C286.317 247.072 256.555 254.755 232.343 271.217L232.339 271.219L232.336 271.222C205.818 289.237 192.268 314.661 192.268 346.395C192.268 378.045 206.576 403.285 234.347 419.947L234.623 420.113L234.906 420.267C245.792 426.205 270.229 434.672 306.59 446.242L306.688 446.273L306.787 446.303C340.415 456.519 358.629 462.826 363.958 465.47C379.434 473.398 383.926 481.905 383.926 490.98C383.926 497.826 381.133 503.554 371.746 508.834C361.32 514.699 346.118 518.589 325.216 518.589C301.424 518.589 287.007 514.138 278.794 507.907L278.759 507.881L278.725 507.855C269.85 501.199 262.661 488.601 259.622 467.327L257.699 453.862H181.941L183.056 470.588C184.78 496.457 191.329 518.976 203.297 537.371H176.801H75.3359C56.5908 537.371 48.1452 513.899 62.5927 501.956L124.223 451.007L23.181 420.279C4.27298 414.529 4.27302 387.76 23.181 382.01L124.223 351.282L52.83 276.668C39.27 262.496 52.0915 239.304 71.3046 243.25L176.801 264.919L153.888 164.59C149.591 145.775 171.802 132.389 186.431 144.977L267.868 215.056L301.5 115.594C307.628 97.4688 333.263 97.4688 339.392 115.594Z" fill="#F4BC44"/>
</svg>
