<?xml version="1.0" encoding="utf-8"?>
<!-- Generator: Adobe Illustrator 23.0.1, SVG Export Plug-In . SVG Version: 6.00 Build 0)  -->
<svg version="1.1" id="Layer_1" xmlns="http://www.w3.org/2000/svg" xmlns:xlink="http://www.w3.org/1999/xlink" x="0px" y="0px"
	 viewBox="0 0 408.77 117.64" style="enable-background:new 0 0 408.77 117.64;" xml:space="preserve">
<style type="text/css">
	.st0{fill:#FFFFFF;}
	.st1{fill:#2C282C;}
	.st2{fill:#173647;}
	.st3{fill:#50E4EA;}
	.st4{fill:#FCDC00;}
	.st5{fill:#85EA2D;}
	.st6{fill:#F4CF14;}
	.st7{fill:none;}
	.st8{fill:#04AADB;}
	.st9{fill:#07CED6;}
	.st10{fill:#63DB2A;}
	.st11{fill:#FF730B;}
	.st12{fill:#17D1FC;}
	.st13{fill:#00AADB;}
	.st14{fill:#758491;}
</style>
<g>
	<g>
		<g>
			<g>
				<g>
					<rect x="356.885" y="66.115" class="st7" width="12.217" height="9.973"/>
					<path class="st2" d="M358.929,70.674h-0.7v-3.683h-1.26v-0.601h3.22v0.601h-1.26V70.674z"/>
					<path class="st2" d="M362.997,70.674l-1.242-3.577h-0.023c0.033,0.531,0.05,1.029,0.05,1.494v2.083h-0.636v-4.283h0.987
						l1.189,3.407h0.018l1.225-3.407h0.99v4.283h-0.674v-2.118c0-0.213,0.005-0.49,0.016-0.832s0.02-0.549,0.028-0.621h-0.023
						l-1.286,3.571H362.997z"/>
				</g>
			</g>
		</g>
	</g>
	<g>
		<g>
			<g>
				<g>
					<g>
						<path class="st5" d="M50.328,97.669c-26.27,0-47.643-21.371-47.643-47.642S24.058,2.385,50.328,2.385
							s47.643,21.373,47.643,47.643S76.598,97.669,50.328,97.669z"/>
					</g>
					<g>
						<g>
							<path class="st2" d="M50.328,4.769c24.996,0,45.258,20.262,45.258,45.258c0,24.995-20.262,45.258-45.258,45.258
								c-24.995,0-45.258-20.263-45.258-45.258C5.07,25.032,25.333,4.769,50.328,4.769 M50.328,0
								C22.743,0,0.301,22.442,0.301,50.027s22.442,50.027,50.027,50.027c27.585,0,50.028-22.442,50.028-50.027S77.913,0,50.328,0
								L50.328,0z"/>
						</g>
					</g>
				</g>
			</g>
		</g>
		<path class="st2" d="M31.802,33.854c-0.154,1.712,0.057,3.482-0.057,5.213c-0.135,1.732-0.347,3.444-0.693,5.156
			c-0.481,2.443-2.001,4.29-4.097,5.829c4.079,2.655,4.54,6.771,4.809,10.946c0.135,2.251,0.077,4.521,0.308,6.752
			c0.173,1.731,0.846,2.174,2.636,2.231c0.731,0.019,1.48,0,2.328,0v5.348c-5.29,0.904-9.657-0.596-10.735-5.078
			c-0.347-1.635-0.578-3.309-0.654-5.002c-0.116-1.789,0.076-3.578-0.058-5.367c-0.385-4.906-1.02-6.56-5.713-6.791v-6.098
			c0.346-0.077,0.673-0.135,1.019-0.173c2.578-0.135,3.674-0.924,4.232-3.463c0.27-1.423,0.424-2.866,0.481-4.328
			c0.193-2.789,0.116-5.636,0.596-8.406c0.673-3.982,3.136-5.906,7.234-6.137c1.154-0.058,2.328,0,3.655,0v5.464
			c-0.558,0.039-1.039,0.115-1.539,0.115C32.226,29.949,32.052,31.084,31.802,33.854z M38.208,46.512h-0.077
			c-1.924-0.096-3.578,1.404-3.675,3.328c-0.096,1.943,1.404,3.598,3.328,3.693h0.231c1.905,0.116,3.539-1.347,3.655-3.251V50.09
			C41.709,48.147,40.151,46.551,38.208,46.512z M50.27,46.512c-1.866-0.058-3.425,1.404-3.482,3.251c0,0.116,0,0.212,0.02,0.327
			c0,2.097,1.423,3.444,3.578,3.444c2.116,0,3.444-1.385,3.444-3.559C53.81,47.878,52.405,46.493,50.27,46.512z M62.621,46.512
			c-1.962-0.039-3.598,1.52-3.655,3.482c0,1.962,1.577,3.539,3.539,3.539h0.039c1.77,0.308,3.559-1.404,3.675-3.462
			C66.314,48.166,64.583,46.512,62.621,46.512z M79.569,46.8c-2.232-0.096-3.348-0.846-3.905-2.963
			c-0.347-1.346-0.558-2.751-0.635-4.136c-0.154-2.578-0.135-5.175-0.308-7.753c-0.404-6.117-4.828-8.252-11.254-7.195v5.31
			c1.019,0,1.808,0,2.597,0.019c1.366,0.019,2.405,0.539,2.539,2.059c0.135,1.385,0.135,2.789,0.27,4.194
			c0.27,2.79,0.423,5.617,0.904,8.368c0.424,2.27,1.982,3.963,3.924,5.348c-3.404,2.289-4.405,5.559-4.578,9.234
			c-0.096,2.52-0.154,5.059-0.288,7.599c-0.116,2.308-0.923,3.058-3.251,3.116c-0.654,0.019-1.289,0.077-2.02,0.116v5.444
			c1.366,0,2.616,0.077,3.866,0c3.886-0.231,6.233-2.116,7.003-5.887c0.327-2.078,0.519-4.174,0.577-6.271
			c0.134-1.924,0.116-3.867,0.308-5.771c0.288-2.982,1.654-4.213,4.636-4.405c0.289-0.039,0.558-0.096,0.828-0.192v-6.099
			C80.281,46.877,79.934,46.82,79.569,46.8z"/>
	</g>
	<g>
		<g>
			<path class="st2" d="M152.273,58.122c0,4.029-1.461,7.169-4.383,9.424c-2.922,2.254-6.888,3.381-11.897,3.381
				c-5.427,0-9.602-0.699-12.523-2.098v-5.135c1.878,0.794,3.924,1.42,6.137,1.879c2.212,0.459,4.404,0.688,6.575,0.688
				c3.548,0,6.22-0.673,8.015-2.02c1.795-1.346,2.692-3.219,2.692-5.62c0-1.586-0.318-2.885-0.955-3.898
				c-0.637-1.012-1.702-1.946-3.194-2.802c-1.493-0.856-3.762-1.826-6.81-2.912c-4.258-1.523-7.3-3.329-9.126-5.417
				c-1.827-2.087-2.74-4.811-2.74-8.171c0-3.527,1.325-6.335,3.976-8.422s6.157-3.131,10.52-3.131c4.55,0,8.735,0.835,12.555,2.505
				l-1.66,4.634c-3.778-1.586-7.452-2.379-11.021-2.379c-2.818,0-5.021,0.606-6.606,1.816c-1.586,1.211-2.379,2.892-2.379,5.041
				c0,1.586,0.292,2.886,0.876,3.897c0.584,1.013,1.57,1.941,2.959,2.787c1.388,0.845,3.511,1.779,6.371,2.802
				c4.801,1.712,8.104,3.549,9.91,5.511C151.37,52.445,152.273,54.991,152.273,58.122z"/>
			<path class="st2" d="M185.288,70.301l-6.293-20.132c-0.396-1.231-1.138-4.028-2.223-8.391h-0.25
				c-0.835,3.653-1.565,6.471-2.192,8.453l-6.481,20.069h-6.011l-9.361-34.314h5.448c2.212,8.621,3.898,15.185,5.056,19.693
				c1.159,4.508,1.821,7.545,1.988,9.11h0.25c0.229-1.189,0.6-2.729,1.111-4.618c0.511-1.889,0.955-3.386,1.331-4.493l6.293-19.693
				h5.635l6.137,19.693c1.169,3.59,1.962,6.606,2.379,9.048h0.25c0.083-0.751,0.308-1.91,0.673-3.475
				c0.365-1.565,2.541-9.988,6.528-25.266h5.385l-9.487,34.314H185.288z"/>
			<path class="st2" d="M225.116,70.301l-1.033-4.884h-0.25c-1.712,2.15-3.418,3.606-5.119,4.368
				c-1.702,0.762-3.825,1.143-6.372,1.143c-3.402,0-6.069-0.876-7.999-2.63c-1.931-1.753-2.896-4.247-2.896-7.482
				c0-6.93,5.542-10.562,16.625-10.896l5.823-0.188v-2.129c0-2.692-0.579-4.681-1.738-5.964c-1.158-1.284-3.011-1.926-5.557-1.926
				c-2.86,0-6.095,0.877-9.706,2.63l-1.597-3.977c1.691-0.918,3.543-1.638,5.558-2.16c2.014-0.521,4.033-0.782,6.058-0.782
				c4.091,0,7.123,0.908,9.095,2.724c1.973,1.816,2.959,4.728,2.959,8.735v23.419H225.116z M213.375,66.638
				c3.235,0,5.777-0.887,7.624-2.661c1.847-1.774,2.771-4.258,2.771-7.452v-3.1l-5.197,0.219c-4.133,0.146-7.113,0.788-8.939,1.925
				c-1.827,1.138-2.74,2.907-2.74,5.307c0,1.878,0.569,3.309,1.707,4.289C209.737,66.148,211.329,66.638,213.375,66.638z"/>
			<path class="st2" d="M264.598,35.987v3.287l-6.356,0.751c0.584,0.731,1.106,1.686,1.565,2.865c0.459,1.18,0.689,2.51,0.689,3.992
				c0,3.36-1.148,6.042-3.444,8.046c-2.296,2.004-5.448,3.006-9.456,3.006c-1.023,0-1.983-0.083-2.88-0.25
				c-2.213,1.169-3.319,2.641-3.319,4.414c0,0.939,0.386,1.634,1.159,2.082c0.772,0.449,2.098,0.673,3.976,0.673h6.074
				c3.715,0,6.57,0.783,8.563,2.348s2.99,3.84,2.99,6.825c0,3.799-1.524,6.695-4.571,8.688s-7.494,2.99-13.337,2.99
				c-4.488,0-7.948-0.835-10.379-2.505c-2.432-1.67-3.647-4.028-3.647-7.076c0-2.087,0.667-3.893,2.003-5.416s3.214-2.557,5.636-3.1
				c-0.876-0.396-1.612-1.013-2.207-1.848c-0.595-0.834-0.893-1.805-0.893-2.912c0-1.252,0.334-2.348,1.002-3.288
				c0.668-0.939,1.722-1.847,3.162-2.724c-1.774-0.73-3.22-1.973-4.336-3.726c-1.117-1.753-1.675-3.757-1.675-6.012
				c0-3.757,1.127-6.653,3.381-8.688c2.254-2.035,5.448-3.053,9.581-3.053c1.795,0,3.413,0.209,4.853,0.626H264.598z
				 M237.234,76.062c0,1.857,0.783,3.267,2.348,4.228c1.565,0.959,3.809,1.439,6.731,1.439c4.362,0,7.592-0.652,9.69-1.956
				c2.098-1.305,3.146-3.074,3.146-5.308c0-1.858-0.575-3.146-1.722-3.867c-1.148-0.72-3.309-1.08-6.481-1.08h-6.23
				c-2.359,0-4.195,0.563-5.51,1.691C237.891,72.336,237.234,73.954,237.234,76.062z M240.051,46.976c0,2.4,0.678,4.216,2.035,5.448
				c1.356,1.232,3.245,1.847,5.667,1.847c5.072,0,7.608-2.463,7.608-7.389c0-5.155-2.567-7.733-7.702-7.733
				c-2.442,0-4.32,0.657-5.635,1.973C240.709,42.436,240.051,44.388,240.051,46.976z"/>
			<path class="st2" d="M299.137,35.987v3.287l-6.356,0.751c0.584,0.731,1.106,1.686,1.565,2.865c0.459,1.18,0.689,2.51,0.689,3.992
				c0,3.36-1.148,6.042-3.444,8.046c-2.296,2.004-5.448,3.006-9.456,3.006c-1.023,0-1.983-0.083-2.88-0.25
				c-2.213,1.169-3.319,2.641-3.319,4.414c0,0.939,0.386,1.634,1.159,2.082c0.772,0.449,2.098,0.673,3.976,0.673h6.074
				c3.715,0,6.57,0.783,8.563,2.348s2.99,3.84,2.99,6.825c0,3.799-1.524,6.695-4.571,8.688s-7.494,2.99-13.337,2.99
				c-4.488,0-7.948-0.835-10.379-2.505c-2.432-1.67-3.647-4.028-3.647-7.076c0-2.087,0.667-3.893,2.003-5.416s3.214-2.557,5.636-3.1
				c-0.876-0.396-1.612-1.013-2.207-1.848c-0.595-0.834-0.893-1.805-0.893-2.912c0-1.252,0.334-2.348,1.002-3.288
				c0.668-0.939,1.722-1.847,3.162-2.724c-1.774-0.73-3.22-1.973-4.336-3.726c-1.117-1.753-1.675-3.757-1.675-6.012
				c0-3.757,1.127-6.653,3.381-8.688c2.254-2.035,5.448-3.053,9.581-3.053c1.795,0,3.413,0.209,4.853,0.626H299.137z
				 M271.773,76.062c0,1.857,0.783,3.267,2.348,4.228c1.565,0.959,3.809,1.439,6.731,1.439c4.362,0,7.592-0.652,9.69-1.956
				c2.098-1.305,3.146-3.074,3.146-5.308c0-1.858-0.575-3.146-1.722-3.867c-1.148-0.72-3.309-1.08-6.481-1.08h-6.23
				c-2.359,0-4.195,0.563-5.51,1.691C272.43,72.336,271.773,73.954,271.773,76.062z M274.59,46.976c0,2.4,0.678,4.216,2.035,5.448
				c1.356,1.232,3.245,1.847,5.667,1.847c5.072,0,7.608-2.463,7.608-7.389c0-5.155-2.567-7.733-7.702-7.733
				c-2.442,0-4.32,0.657-5.635,1.973C275.248,42.436,274.59,44.388,274.59,46.976z"/>
			<path class="st2" d="M316.778,70.927c-5.072,0-9.075-1.544-12.007-4.634c-2.933-3.089-4.399-7.378-4.399-12.868
				c0-5.531,1.362-9.925,4.086-13.181c2.724-3.256,6.381-4.884,10.974-4.884c4.3,0,7.702,1.415,10.207,4.243
				c2.505,2.828,3.757,6.559,3.757,11.192v3.288h-23.638c0.104,4.028,1.122,7.086,3.052,9.173c1.931,2.087,4.649,3.131,8.156,3.131
				c3.694,0,7.347-0.772,10.958-2.317v4.634c-1.837,0.793-3.575,1.362-5.213,1.706C321.073,70.755,319.095,70.927,316.778,70.927z
				 M315.37,39.712c-2.755,0-4.952,0.897-6.591,2.692c-1.639,1.795-2.604,4.279-2.896,7.452h17.94c0-3.277-0.73-5.787-2.191-7.53
				C320.17,40.584,318.083,39.712,315.37,39.712z"/>
			<path class="st2" d="M350.898,35.36c1.523,0,2.891,0.125,4.102,0.375l-0.72,4.822c-1.42-0.313-2.672-0.469-3.757-0.469
				c-2.776,0-5.15,1.127-7.123,3.381c-1.973,2.254-2.959,5.062-2.959,8.422v18.41h-5.197V35.987h4.29l0.595,6.355h0.25
				c1.273-2.233,2.807-3.955,4.603-5.166C346.775,35.966,348.747,35.36,350.898,35.36z"/>
		</g>
		<g>
			<g>
				<g>
					<g>
						
					</g>
				</g>
				 
			</g>
		</g>
	</g>
</g>
</svg>
